<svg xmlns="http://www.w3.org/2000/svg" xmlns:xlink="http://www.w3.org/1999/xlink">

    <symbol id="gmail" fill-rule="gmail" clip-rule="gmail" stroke-linejoin="gmail" stroke-miterlimit="1.414">
        <path d="M24 4.5v15c0 .85-.65 1.5-1.5 1.5H21V7.387l-9 6.463-9-6.463V21H1.5C.649 21 0 20.35 0 19.5v-15c0-.425.162-.8.431-1.068C.7 3.16 1.076 3 1.5 3H2l10 7.25L22 3h.5c.425 0 .8.162 1.069.432.27.268.431.643.431 1.068z"/>
    </symbol>

    <symbol id="linkedin" fill-rule="linkedin" clip-rule="linkedin" stroke-linejoin="linkedin" stroke-miterlimit="1.414">
        <path d="M20.447 20.452h-3.554v-5.569c0-1.328-.027-3.037-1.852-3.037-1.853 0-2.136 1.445-2.136 2.939v5.667H9.351V9h3.414v1.561h.046c.477-.9 1.637-1.85 3.37-1.85 3.601 0 4.267 2.37 4.267 5.455v6.286zM5.337 7.433c-1.144 0-2.063-.926-2.063-2.065 0-1.138.92-2.063 2.063-2.063 1.14 0 2.064.925 2.064 2.063 0 1.139-.925 2.065-2.064 2.065zm1.782 13.019H3.555V9h3.564v11.452zM22.225 0H1.771C.792 0 0 .774 0 1.729v20.542C0 23.227.792 24 1.771 24h20.451C23.2 24 24 23.227 24 22.271V1.729C24 .774 23.2 0 22.222 0h.003z"/>
    </symbol>


    <symbol id="skype" fill-rule="skype" clip-rule="skype" stroke-linejoin="skype" stroke-miterlimit="1.414">
        <path d="M12.069 18.874c-4.023 0-5.82-1.979-5.82-3.464 0-.765.561-1.296 1.333-1.296 1.723 0 1.273 2.477 4.487 2.477 1.641 0 2.55-.895 2.55-1.811 0-.551-.269-1.16-1.354-1.429l-3.576-.895c-2.88-.724-3.403-2.286-3.403-3.751 0-3.047 2.861-4.191 5.549-4.191 2.471 0 5.393 1.373 5.393 3.199 0 .784-.688 1.24-1.453 1.24-1.469 0-1.198-2.037-4.164-2.037-1.469 0-2.292.664-2.292 1.617s1.153 1.258 2.157 1.487l2.637.587c2.891.649 3.624 2.346 3.624 3.944 0 2.476-1.902 4.324-5.722 4.324m11.084-4.882l-.029.135-.044-.24c.015.045.044.074.059.12.12-.675.181-1.363.181-2.052 0-1.529-.301-3.012-.898-4.42-.569-1.348-1.395-2.562-2.427-3.596-1.049-1.033-2.247-1.856-3.595-2.426-1.318-.631-2.801-.93-4.328-.93-.72 0-1.444.07-2.143.204l.119.06-.239-.033.119-.025C8.91.274 7.829 0 6.731 0c-1.789 0-3.47.698-4.736 1.967C.729 3.235.032 4.923.032 6.716c0 1.143.292 2.265.844 3.258l.02-.124.041.239-.06-.115c-.114.645-.172 1.299-.172 1.955 0 1.53.3 3.017.884 4.416.568 1.362 1.378 2.576 2.427 3.609 1.034 1.05 2.247 1.857 3.595 2.442 1.394.6 2.877.898 4.404.898.659 0 1.334-.06 1.977-.179l-.119-.062.24.046-.135.03c1.002.569 2.126.871 3.294.871 1.783 0 3.459-.69 4.733-1.963 1.259-1.259 1.962-2.951 1.962-4.749 0-1.138-.299-2.262-.853-3.266"/>
    </symbol>


    <symbol id="gitlab" fill-rule="gitlab" clip-rule="gitlab" stroke-linejoin="gitlab" stroke-miterlimit="1.414">
        <path d="M23.955 13.587l-1.342-4.135-2.664-8.189c-.135-.423-.73-.423-.867 0L16.418 9.45H7.582L4.919 1.263C4.783.84 4.185.84 4.05 1.26L1.386 9.449.044 13.587c-.121.375.014.789.331 1.023L12 23.054l11.625-8.443c.318-.235.453-.647.33-1.024"/>
    </symbol>

    <symbol id="github" fill-rule="github" clip-rule="github" stroke-linejoin="github" stroke-miterlimit="1.414">
        <path d="M12 .297c-6.63 0-12 5.373-12 12 0 5.303 3.438 9.8 8.205 11.385.6.113.82-.258.82-.577 0-.285-.01-1.04-.015-2.04-3.338.724-4.042-1.61-4.042-1.61C4.422 18.07 3.633 17.7 3.633 17.7c-1.087-.744.084-.729.084-.729 1.205.084 1.838 1.236 1.838 1.236 1.07 1.835 2.809 1.305 3.495.998.108-.776.417-1.305.76-1.605-2.665-.3-5.466-1.332-5.466-5.93 0-1.31.465-2.38 1.235-3.22-.135-.303-.54-1.523.105-3.176 0 0 1.005-.322 3.3 1.23.96-.267 1.98-.399 3-.405 1.02.006 2.04.138 3 .405 2.28-1.552 3.285-1.23 3.285-1.23.645 1.653.24 2.873.12 3.176.765.84 1.23 1.91 1.23 3.22 0 4.61-2.805 5.625-5.475 5.92.42.36.81 1.096.81 2.22 0 1.606-.015 2.896-.015 3.286 0 .315.21.69.825.57C20.565 22.092 24 17.592 24 12.297c0-6.627-5.373-12-12-12"/>
    </symbol>

    <symbol id="gplus" fill-rule="gplus" clip-rule="gplus" stroke-linejoin="gplus" stroke-miterlimit="1.414">
        <path d="M7.635 10.909v2.619h4.335c-.173 1.125-1.31 3.295-4.331 3.295-2.604 0-4.731-2.16-4.731-4.823 0-2.662 2.122-4.822 4.728-4.822 1.485 0 2.479.633 3.045 1.178l2.073-1.994c-1.33-1.245-3.056-1.995-5.115-1.995C3.412 4.365 0 7.785 0 12s3.414 7.635 7.635 7.635c4.41 0 7.332-3.098 7.332-7.461 0-.501-.054-.885-.12-1.265H7.635zm16.365 0h-2.183V8.726h-2.183v2.183h-2.182v2.181h2.184v2.184h2.189V13.09H24"/>
    </symbol>

    <symbol id="youtube" fill-rule="youtube" clip-rule="youtube" stroke-linejoin="youtube" stroke-miterlimit="1.414">
        <path class="a" d="M23.495 6.205a3.007 3.007 0 0 0-2.088-2.088c-1.87-.501-9.396-.501-9.396-.501s-7.507-.01-9.396.501A3.007 3.007 0 0 0 .527 6.205a31.247 31.247 0 0 0-.522 5.805 31.247 31.247 0 0 0 .522 5.783 3.007 3.007 0 0 0 2.088 2.088c1.868.502 9.396.502 9.396.502s7.506 0 9.396-.502a3.007 3.007 0 0 0 2.088-2.088 31.247 31.247 0 0 0 .5-5.783 31.247 31.247 0 0 0-.5-5.805zM9.609 15.601V8.408l6.264 3.602z"/>
    </symbol>

    <symbol id="twitter" fill-rule="twitter" clip-rule="twitter" stroke-linejoin="twitter" stroke-miterlimit="1.414">
        <path d="M23.954 4.569c-.885.389-1.83.654-2.825.775 1.014-.611 1.794-1.574 2.163-2.723-.951.555-2.005.959-3.127 1.184-.896-.959-2.173-1.559-3.591-1.559-2.717 0-4.92 2.203-4.92 4.917 0 .39.045.765.127 1.124C7.691 8.094 4.066 6.13 1.64 3.161c-.427.722-.666 1.561-.666 2.475 0 1.71.87 3.213 2.188 4.096-.807-.026-1.566-.248-2.228-.616v.061c0 2.385 1.693 4.374 3.946 4.827-.413.111-.849.171-1.296.171-.314 0-.615-.03-.916-.086.631 1.953 2.445 3.377 4.604 3.417-1.68 1.319-3.809 2.105-6.102 2.105-.39 0-.779-.023-1.17-.067 2.189 1.394 4.768 2.209 7.557 2.209 9.054 0 13.999-7.496 13.999-13.986 0-.209 0-.42-.015-.63.961-.689 1.8-1.56 2.46-2.548l-.047-.02z"/>
    </symbol>
</svg>

